<svg width="101" height="101" viewBox="0 0 101 101" fill="none" xmlns="http://www.w3.org/2000/svg">
<path d="M27.2117 67.1456L33.5809 58.7695C34.4695 57.6052 36.247 57.6052 37.1193 58.7695L43.4884 67.1456C44.3937 68.3421 43.5379 70.0562 42.0072 70.0562H28.6929C27.1623 70.0562 26.29 68.3421 27.2117 67.1456Z" fill="#EC7735"/>
<path d="M95.6304 67.2626L67.9102 30.8463C67.0349 29.6993 65.2841 29.6993 64.425 30.8463L55.0876 43.1125C54.5364 43.8453 54.5364 44.833 55.0876 45.5658L58.1838 49.6279C59.0106 50.7271 60.6803 50.7271 61.5232 49.6279L64.7654 45.3746C65.4787 44.4346 66.9052 44.4346 67.6023 45.3746L85.0612 68.298C85.9364 69.445 87.2982 70.1141 88.7571 70.1141H94.1878C95.6953 70.1141 96.5545 68.4255 95.6467 67.2466L95.6304 67.2626Z" fill="white"/>
<path d="M64.1718 67.2478L52.4344 51.8176L46.7518 44.3494L36.4877 30.846C35.6134 29.6995 33.865 29.6995 33.007 30.846L5.32283 67.2478C4.41622 68.4262 5.27426 70.1141 6.77988 70.1141H12.2034C13.6605 70.1141 15.0204 69.4452 15.8946 68.2987L33.3307 45.3844C34.0431 44.4608 35.4678 44.4608 36.1638 45.3844L41.0693 51.8176L46.7518 59.2859L53.6 68.2987C54.4743 69.4452 55.8342 70.1141 57.2912 70.1141H62.7148C64.2204 70.1141 65.0623 68.4262 64.1718 67.2478Z" fill="white"/>
</svg>
