<svg width="101" height="101" viewBox="0 0 101 101" fill="none" xmlns="http://www.w3.org/2000/svg">
<path d="M27.2117 67.1456L33.5809 58.7695C34.4695 57.6052 36.247 57.6052 37.1193 58.7695L43.4884 67.1456C44.3937 68.3421 43.5379 70.0562 42.0072 70.0562H28.6929C27.1623 70.0562 26.29 68.3421 27.2117 67.1456Z" fill="#EC7735"/>
<path d="M95.6306 67.2626L67.9103 30.8463C67.035 29.6993 65.2842 29.6993 64.4251 30.8463L55.0877 43.1125C54.5365 43.8453 54.5365 44.833 55.0877 45.5658L58.1839 49.6279C59.0107 50.7271 60.6804 50.7271 61.5233 49.6279L64.7655 45.3746C65.4788 44.4346 66.9053 44.4346 67.6024 45.3746L85.0613 68.298C85.9366 69.445 87.2983 70.1141 88.7573 70.1141H94.1879C95.6954 70.1141 96.5546 68.4255 95.6469 67.2466L95.6306 67.2626Z" fill="#29C3E5"/>
<path d="M64.1719 67.2478L52.4345 51.8176L46.7519 44.3494L36.4878 30.846C35.6136 29.6995 33.8652 29.6995 33.0071 30.846L5.32295 67.2478C4.41634 68.4262 5.27439 70.1141 6.78001 70.1141H12.2036C13.6606 70.1141 15.0205 69.4452 15.8948 68.2987L33.3308 45.3844C34.0432 44.4608 35.4679 44.4608 36.164 45.3844L41.0694 51.8176L46.7519 59.2859L53.6001 68.2987C54.4744 69.4452 55.8343 70.1141 57.2914 70.1141H62.7149C64.2205 70.1141 65.0624 68.4262 64.1719 67.2478Z" fill="#29C3E5"/>
</svg>
