<svg width="35" height="35" viewBox="0 0 35 35" fill="none" xmlns="http://www.w3.org/2000/svg">
<path d="M17.5 20.9C19.3777 20.9 20.9 19.3778 20.9 17.5C20.9 15.6222 19.3777 14.1 17.5 14.1C15.6222 14.1 14.1 15.6222 14.1 17.5C14.1 19.3778 15.6222 20.9 17.5 20.9Z" stroke="white" stroke-width="2.04" stroke-miterlimit="10"/>
<path d="M8.15503 17.5L14.105 17.5" stroke="white" stroke-width="2.04" stroke-miterlimit="10"/>
<path d="M20.895 17.5L26.845 17.5" stroke="white" stroke-width="2.04" stroke-miterlimit="10"/>
<path d="M17.5 20.895L17.5 26.845" stroke="white" stroke-width="2.04" stroke-miterlimit="10"/>
<path d="M17.5 30.25C24.5416 30.25 30.25 24.5416 30.25 17.5C30.25 10.4584 24.5416 4.75 17.5 4.75C10.4584 4.75 4.75 10.4584 4.75 17.5C4.75 24.5416 10.4584 30.25 17.5 30.25Z" stroke="white" stroke-width="2.04" stroke-miterlimit="10" stroke-linecap="square"/>
<path d="M17.5 26.85C22.6639 26.85 26.85 22.6639 26.85 17.5C26.85 12.3361 22.6639 8.14999 17.5 8.14999C12.3362 8.14999 8.15002 12.3361 8.15002 17.5C8.15002 22.6639 12.3362 26.85 17.5 26.85Z" stroke="white" stroke-width="2.04" stroke-miterlimit="10" stroke-linecap="square"/>
</svg>
